<svg width="80" height="80" viewBox="0 0 80 80" fill="none" xmlns="http://www.w3.org/2000/svg">
<path d="M80 0H0V80H80V0Z" fill="#925BEF"/>
<path fill-rule="evenodd" clip-rule="evenodd" d="M23.6456 53.383C22.0019 53.383 20.6678 52.036 20.6678 50.383C20.6678 48.73 22.0019 47.383 23.6456 47.383C25.2894 47.383 26.6235 48.73 26.6235 50.383C26.6235 52.036 25.2894 53.383 23.6456 53.383ZM27.6776 54.772C28.8539 53.674 29.6013 52.123 29.6013 50.383C29.6013 47.074 26.9302 44.383 23.6456 44.383C23.0322 44.383 22.4515 44.506 21.8917 44.68L19.2086 39.994L23.1156 33.169L20.5397 31.669L16.201 39.244C15.933 39.706 15.933 40.279 16.201 40.744L19.3546 46.243C18.3302 47.32 17.6899 48.775 17.6899 50.383C17.6899 53.692 20.3611 56.383 23.6456 56.383C24.134 56.383 24.6015 56.308 25.0571 56.194L27.3858 60.259C27.6508 60.724 28.1422 61.009 28.6722 61.009H36.9953V58.009H29.5358L27.6776 54.772ZM56.3514 32.551C54.7106 32.551 53.3735 31.204 53.3735 29.551C53.3735 27.895 54.7106 26.551 56.3514 26.551C57.9952 26.551 59.3292 27.895 59.3292 29.551C59.3292 31.204 57.9952 32.551 56.3514 32.551ZM60.6455 33.688C61.6698 32.611 62.3071 31.156 62.3071 29.551C62.3071 26.242 59.636 23.551 56.3514 23.551C55.863 23.551 55.3985 23.626 54.9429 23.74L52.6172 19.675C52.3521 19.21 51.8608 18.925 51.3278 18.925H43.0047V21.925H50.4671L52.3223 25.162C51.1461 26.257 50.3957 27.811 50.3957 29.551C50.3957 32.86 53.0698 35.551 56.3514 35.551C56.9648 35.551 57.5485 35.428 58.1053 35.254L60.7943 39.943L56.8814 46.762L59.4573 48.262L63.799 40.693C64.067 40.228 64.067 39.655 63.799 39.193L60.6455 33.688ZM51.9382 61C50.2944 61 48.9604 59.653 48.9604 58C48.9604 56.344 50.2944 55 51.9382 55C53.582 55 54.9161 56.344 54.9161 58C54.9161 59.653 53.582 61 51.9382 61ZM42.951 46.3H36.3849L32.7728 40L36.1199 34.159L36.8822 33.697H43.6032L47.2153 40L43.9486 45.694L42.951 46.3ZM28.1154 25C26.4716 25 25.1375 23.653 25.1375 22C25.1375 20.344 26.4716 19 28.1154 19C29.7592 19 31.0932 20.344 31.0932 22C31.0932 23.653 29.7592 25 28.1154 25ZM51.9382 52C50.9734 52 50.0711 52.255 49.2641 52.666L46.2743 47.641L50.223 40.75C50.491 40.285 50.491 39.712 50.223 39.25L45.7532 31.447C45.4882 30.985 44.9968 30.697 44.4638 30.697H36.1794L33.0169 25.39C33.681 24.424 34.0711 23.257 34.0711 22C34.0711 18.691 31.4 16 28.1154 16C24.8308 16 22.1597 18.691 22.1597 22C22.1597 25.309 24.8308 28 28.1154 28C29.0534 28 29.9319 27.757 30.724 27.367L33.7048 32.377L29.7681 39.25C29.5001 39.712 29.5001 40.285 29.7681 40.75L34.2379 48.55C34.5029 49.012 34.9942 49.3 35.5243 49.3H43.7878L46.986 54.673C46.3547 55.627 45.9825 56.767 45.9825 58C45.9825 61.309 48.6536 64 51.9382 64C55.2228 64 57.8939 61.309 57.8939 58C57.8939 54.691 55.2228 52 51.9382 52Z" fill="white"/>
</svg>
